<svg xmlns="http://www.w3.org/2000/svg" width="31.977" height="39.694"><svg xmlns:svg="http://www.w3.org/2000/svg" xmlns="http://www.w3.org/2000/svg" width="31.977" height="39.694" viewBox="0 0 8.461 10.502" version="1.1" id="SvgjsSvg1075"><g id="SvgjsG1071" transform="translate(-81.592 -112.781)"><g transform="matrix(.35278 0 0 -.35278 -59.302 242.406)" id="SvgjsG1070"><g transform="translate(406.898 356.597)" id="SvgjsG1069"><path id="SvgjsPath1068" style="fill:#efece5;fill-opacity:1;fill-rule:nonzero;stroke:none" d="M0 0c-.064.169-.102.35-.102.542a1.526 1.526 0 0 1-3.043.17l.124-.791 2.492-16.013h1.668z"/></g><g transform="translate(403.744 357.14)" id="SvgjsG1067"><path id="SvgjsPath1066" style="fill:#a6cf5a;fill-opacity:1;fill-rule:nonzero;stroke:none" d="M0 0c0-.222.049-.432.133-.622L.01.169C.006.114 0 .058 0 0"/></g><g transform="translate(406.797 357.14)" id="SvgjsG1065"><path id="SvgjsPath1064" style="fill:#a6cf5a;fill-opacity:1;fill-rule:nonzero;stroke:none" d="M0 0c0-.192.037-.374.102-.542L.039.337A1.618 1.618 0 0 1 0 0"/></g><g transform="translate(409.92 356.684)" id="SvgjsG1063"><path id="SvgjsPath1062" style="fill:#d72e2d;fill-opacity:1;fill-rule:nonzero;stroke:none" d="M0 0c-.045.144-.07.297-.07.456a1.526 1.526 0 0 1-3.014.337l.063-.879 1.138-16.093H.414z"/></g><g transform="translate(409.85 357.14)" id="SvgjsG1061"><path id="SvgjsPath1060" style="fill:#a6cf5a;fill-opacity:1;fill-rule:nonzero;stroke:none" d="M0 0c0-.159.025-.312.07-.456l-.021.83A1.492 1.492 0 0 1 0 0"/></g><g transform="translate(412.86 356.783)" id="SvgjsG1059"><path id="SvgjsPath1058" style="fill:#a6cf5a;fill-opacity:1;fill-rule:nonzero;stroke:none" d="M0 0a1.455 1.455 0 0 1 .018.639z"/></g><g transform="translate(411.377 358.666)" id="SvgjsG1057"><path id="SvgjsPath1056" style="fill:#efece5;fill-opacity:1;fill-rule:nonzero;stroke:none" d="M0 0a1.528 1.528 0 0 1-1.479-1.152l.022-.83.414-16.179h2.107l.418 16.278.018.639A1.53 1.53 0 0 1 0 0"/></g><g transform="translate(415.883 356.676)" id="SvgjsG1055"><path id="SvgjsPath1054" style="fill:#a6cf5a;fill-opacity:1;fill-rule:nonzero;stroke:none" d="M0 0a1.512 1.512 0 0 1 .051.712z"/></g><g transform="translate(414.43 358.666)" id="SvgjsG1053"><path id="SvgjsPath1052" style="fill:#be202d;fill-opacity:1;fill-rule:nonzero;stroke:none" d="M0 0a1.525 1.525 0 0 1-1.525-1.526c0-.123-.016-.243-.045-.357l-.418-16.278h2.3L1.453-1.99l.051.712A1.525 1.525 0 0 1 0 0"/></g><g transform="translate(417.482 358.666)" id="SvgjsG1051"><path id="SvgjsPath1050" style="fill:#e0dad2;fill-opacity:1;fill-rule:nonzero;stroke:none" d="M0 0a1.527 1.527 0 0 1-1.527-1.526c0-.162-.026-.318-.073-.464l-1.14-16.171h1.664L1.432-2.053l.091.59A1.525 1.525 0 0 1 0 0"/></g><g transform="translate(418.914 356.613)" id="SvgjsG1049"><path id="SvgjsPath1048" style="fill:#a6cf5a;fill-opacity:1;fill-rule:nonzero;stroke:none" d="M0 0c.061.164.094.341.094.526L.092.59z"/></g><g transform="translate(419.049 357.484)" id="SvgjsG1047"><path id="SvgjsPath1046" style="fill:#a6cf5a;fill-opacity:1;fill-rule:nonzero;stroke:none" d="M0 0a1.38 1.38 0 0 1-.033-.219Z"/></g><g transform="translate(419.049 357.484)" id="SvgjsG1045"><path id="SvgjsPath1044" style="fill:#be202d;fill-opacity:1;fill-rule:nonzero;stroke:none" d="m0 0-.033-.219c-.004-.042-.008-.084-.008-.126 0-.185-.033-.362-.094-.526l-2.508-16.108h1.25L1.014-1.796l.47 2.978A1.525 1.525 0 0 1 0 0"/></g><g transform="translate(403.877 356.518)" id="SvgjsG1043"><path id="SvgjsPath1042" style="fill:#d72e2d;fill-opacity:1;fill-rule:nonzero;stroke:none" d="M0 0c-.084.19-.133.4-.133.622 0 .842-.683 1.526-1.525 1.526l.472-2.978 2.407-15.183h1.271z"/></g><g transform="translate(415.545 360.627)" id="SvgjsG1041"><path id="SvgjsPath1040" style="fill:#eaddb6;fill-opacity:1;fill-rule:nonzero;stroke:none" d="M0 0c.016-.097.045-.191.088-.279A1.094 1.094 0 0 1 0-.299a.688.688 0 0 1-.115.091A.756.756 0 0 1 0 0m-4.646-3.027-.024-.051a.711.711 0 0 1-.101.143.836.836 0 0 1 .125-.092M-5.279.08a.93.93 0 0 1 .025-.169l-.025.001a.848.848 0 0 1-.221-.03c-.027.023-.057.043-.084.063.01.013.02.026.027.039.1.016.194.05.278.096m1.681-1.777a.855.855 0 0 1 .192.323.851.851 0 0 1 .166-.119.847.847 0 0 1-.358-.204M3.619-.474a.847.847 0 0 1-1.084.071c-.015.01-.029.017-.045.026A.851.851 0 0 1 1.311.821.85.85 0 0 1 .055.419a.852.852 0 0 1-1.348.577 1.133 1.133 0 0 1-.096.071.85.85 0 0 1-.787 1.361.852.852 0 0 1-1.404.751.85.85 0 1 1-1.674-.264h-.025a.852.852 0 0 1-.821-.619.85.85 0 0 1-1.291-.923h-.027a.832.832 0 0 1-.246-.037h-.002a.855.855 0 0 1-.74-.429.91.91 0 0 1-.147-.086.849.849 0 0 1-1.246-1.046.847.847 0 0 1-1.119-.46.849.849 0 0 1-1.002-.679.85.85 0 1 1 .58-1.573.849.849 0 0 1 1.274.696.882.882 0 0 1 .267-.155.851.851 0 0 1 1.235-1.012.86.86 0 0 1 .228-.182.882.882 0 0 1 .104-.165.851.851 0 0 1-.534-.789c0-.073.01-.145.03-.213l-.03.001a.85.85 0 1 1 .43-1.585.85.85 0 0 1 1.279 1.121.852.852 0 0 1 1.409.641.83.83 0 0 1-.053.287.851.851 0 0 1 1.062.445.85.85 0 0 1 1.172-.32.851.851 0 0 1 1.488.56.829.829 0 0 1 .754.053.867.867 0 0 1 .227-.181.852.852 0 1 1 .658-1.553.85.85 0 1 1 1.096 1.279.845.845 0 0 1 .09.895c.228.02.429.131.572.296a.84.84 0 0 1 .455-.282.851.851 0 0 1 1.664.165.849.849 0 0 1 .121 1.265.85.85 0 0 1-.039 1.196"/></g><g transform="translate(415.398 357.2)" id="SvgjsG1039"><path id="SvgjsPath1038" style="fill:#ddcaab;fill-opacity:1;fill-rule:nonzero;stroke:none" d="M0 0c0-.095.014-.19.047-.281a.97.97 0 0 1-.088-.007.65.65 0 0 1-.1.103A.854.854 0 0 1 0 0m-4.881-2.318c-.012-.015-.021-.03-.031-.046a.948.948 0 0 1-.08.151.847.847 0 0 1 .111-.105M-5.09.764a.776.776 0 0 1 .004-.167l-.029.006a.844.844 0 0 1-.213 0 1.016 1.016 0 0 1-.076.07l.035.036a.783.783 0 0 1 .279.055m1.393-1.933a.874.874 0 0 1 .228.285.706.706 0 0 1 .143-.135.822.822 0 0 1-.371-.15m7.127.241a.828.828 0 0 1-1.039.21l-.037.031A.83.83 0 0 1 1.369.625.831.831 0 0 1 .104.398a.827.827 0 0 1-1.227.732.627.627 0 0 1-.082.081.83.83 0 0 1-.582 1.418.83.83 0 0 1-1.26.907.829.829 0 1 1-1.648-.038l-.028.006a.835.835 0 0 1-.873-.492.813.813 0 0 1-.429.196.834.834 0 0 1-.936-.922c-.01.002-.018.005-.027.005a.786.786 0 0 1-.242-.003l-.002.001a.831.831 0 0 1-.77-.319.904.904 0 0 1-.152-.063.83.83 0 0 1-1.34-.849.827.827 0 0 1-1.143-.298.825.825 0 0 1-1.054-.526.83.83 0 0 1-.784-.717.836.836 0 0 1 .713-.934.834.834 0 0 1 .426.056.828.828 0 0 1 1.322.508.818.818 0 0 1 .239-.186.825.825 0 0 1 .629-1.194.824.824 0 0 1 .431.056.783.783 0 0 1 .197-.205.643.643 0 0 1 .079-.173.833.833 0 0 1-.62-.692.82.82 0 0 1 0-.21l-.027.006a.828.828 0 0 1-.932-.712.827.827 0 0 1 1.141-.876.832.832 0 0 1 1.512.351.823.823 0 0 1-.133.565.83.83 0 0 1 1.432.72.827.827 0 0 1 1.082.293.83.83 0 0 1 1.091-.463.829.829 0 0 1 1.51.347.836.836 0 0 1 .737-.047.847.847 0 0 1 .193-.203.83.83 0 0 1 .004-1.644.843.843 0 0 1 .431.058.83.83 0 1 1 1.225 1.093.824.824 0 0 1 .203.852.83.83 0 0 1 .59.212c.018-.027.035-.054.055-.079a.824.824 0 0 1 .347-.253.83.83 0 0 1 1.34-.52.822.822 0 0 1 .287.464.828.828 0 0 1 .282 1.205.823.823 0 0 1 .119 1.16"/></g><g transform="translate(406.898 356.597)" id="SvgjsG1037"><path id="SvgjsPath1036" style="fill:#efece5;fill-opacity:1;fill-rule:nonzero;stroke:none" d="M0 0c-.064.169-.102.35-.102.542a1.526 1.526 0 0 1-3.043.17l.124-.791 2.492-16.013h1.668z"/></g><g transform="translate(403.744 357.14)" id="SvgjsG1035"><path id="SvgjsPath1034" style="fill:#a6cf5a;fill-opacity:1;fill-rule:nonzero;stroke:none" d="M0 0c0-.222.049-.432.133-.622L.01.169C.006.114 0 .058 0 0"/></g><g transform="translate(406.797 357.14)" id="SvgjsG1033"><path id="SvgjsPath1032" style="fill:#a6cf5a;fill-opacity:1;fill-rule:nonzero;stroke:none" d="M0 0c0-.192.037-.374.102-.542L.039.337A1.618 1.618 0 0 1 0 0"/></g><g transform="translate(409.92 356.684)" id="SvgjsG1031"><path id="SvgjsPath1030" style="fill:#d72e2d;fill-opacity:1;fill-rule:nonzero;stroke:none" d="M0 0c-.045.144-.07.297-.07.456a1.526 1.526 0 0 1-3.014.337l.063-.879 1.138-16.093H.414z"/></g><g transform="translate(409.85 357.14)" id="SvgjsG1029"><path id="SvgjsPath1028" style="fill:#a6cf5a;fill-opacity:1;fill-rule:nonzero;stroke:none" d="M0 0c0-.159.025-.312.07-.456l-.021.83A1.492 1.492 0 0 1 0 0"/></g><g transform="translate(412.86 356.783)" id="SvgjsG1027"><path id="SvgjsPath1026" style="fill:#a6cf5a;fill-opacity:1;fill-rule:nonzero;stroke:none" d="M0 0a1.455 1.455 0 0 1 .018.639z"/></g><g transform="translate(411.377 358.666)" id="SvgjsG1025"><path id="SvgjsPath1024" style="fill:#efece5;fill-opacity:1;fill-rule:nonzero;stroke:none" d="M0 0a1.528 1.528 0 0 1-1.479-1.152l.022-.83.414-16.179h2.107l.418 16.278.018.639A1.53 1.53 0 0 1 0 0"/></g><g transform="translate(411.18 340.505)" id="SvgjsG1023"><path id="SvgjsPath1022" style="fill:#e0dad2;fill-opacity:1;fill-rule:nonzero;stroke:none" d="M0 0h1.262l.418 16.278.017.639a1.53 1.53 0 0 1-1.5 1.244"/></g><g transform="translate(415.883 356.676)" id="SvgjsG1021"><path id="SvgjsPath1020" style="fill:#a6cf5a;fill-opacity:1;fill-rule:nonzero;stroke:none" d="M0 0a1.512 1.512 0 0 1 .051.712z"/></g><g transform="translate(414.43 358.666)" id="SvgjsG1019"><path id="SvgjsPath1018" style="fill:#be202d;fill-opacity:1;fill-rule:nonzero;stroke:none" d="M0 0a1.525 1.525 0 0 1-1.525-1.526c0-.123-.016-.243-.045-.357l-.418-16.278h2.3L1.453-1.99l.051.712A1.525 1.525 0 0 1 0 0"/></g><g transform="translate(417.482 358.666)" id="SvgjsG1017"><path id="SvgjsPath1016" style="fill:#e0dad2;fill-opacity:1;fill-rule:nonzero;stroke:none" d="M0 0a1.527 1.527 0 0 1-1.527-1.526c0-.162-.026-.318-.073-.464l-1.14-16.171h1.664L1.432-2.053l.091.59A1.525 1.525 0 0 1 0 0"/></g><g transform="translate(418.914 356.613)" id="SvgjsG1015"><path id="SvgjsPath1014" style="fill:#a6cf5a;fill-opacity:1;fill-rule:nonzero;stroke:none" d="M0 0c.061.164.094.341.094.526L.092.59z"/></g><g transform="translate(419.049 357.484)" id="SvgjsG1013"><path id="SvgjsPath1012" style="fill:#a6cf5a;fill-opacity:1;fill-rule:nonzero;stroke:none" d="M0 0a1.38 1.38 0 0 1-.033-.219Z"/></g><g transform="translate(419.049 357.484)" id="SvgjsG1011"><path id="SvgjsPath1010" style="fill:#b12024;fill-opacity:1;fill-rule:nonzero;stroke:none" d="m0 0-.033-.219c-.004-.042-.008-.084-.008-.126 0-.185-.033-.362-.094-.526l-2.508-16.108h1.25L1.014-1.796l.47 2.978A1.525 1.525 0 0 1 0 0"/></g><g transform="translate(403.877 356.518)" id="SvgjsG1009"><path id="SvgjsPath1008" style="fill:#d72e2d;fill-opacity:1;fill-rule:nonzero;stroke:none" d="M0 0c-.084.19-.133.4-.133.622 0 .842-.683 1.526-1.525 1.526l.472-2.978 2.407-15.183h1.271z"/></g><g transform="translate(411.428 360.682)" id="SvgjsG1007"><path id="SvgjsPath1006" style="fill:#efece5;fill-opacity:1;fill-rule:nonzero;stroke:none" d="M0 0a.853.853 0 0 1-.838 1.005.85.85 0 0 1-.836-.696.852.852 0 1 1 .58-1.574.853.853 0 0 1 1.28.737A.862.862 0 0 1 0 0"/></g><g transform="translate(411.662 362.61)" id="SvgjsG1005"><path id="SvgjsPath1004" style="fill:#efece5;fill-opacity:1;fill-rule:nonzero;stroke:none" d="M0 0a.528.528 0 0 0 .516.618.526.526 0 0 0 .515-.429.524.524 0 1 0-.359-.968A.525.525 0 0 0 0 0"/></g><g transform="translate(406.176 360.041)" id="SvgjsG1003"><path id="SvgjsPath1002" style="fill:#efece5;fill-opacity:1;fill-rule:nonzero;stroke:none" d="M0 0a.525.525 0 0 0 1.031.189.524.524 0 1 0-.359-.968A.524.524 0 0 0 0 0"/></g><g transform="translate(414.232 360.041)" id="SvgjsG1001"><path id="SvgjsPath1000" style="fill:#efece5;fill-opacity:1;fill-rule:nonzero;stroke:none" d="M0 0a.526.526 0 0 0 1.031.189.526.526 0 0 0-.097-1.04.52.52 0 0 0-.262.072A.525.525 0 0 0 0 0"/></g></g></g></svg><style>@media (prefers-color-scheme:light){:root{filter:none}}</style></svg>