<svg aria-hidden="true" style="width:0;height:0;position:absolute;overflow:hidden" xmlns="http://www.w3.org/2000/svg"><defs><symbol id="moon" viewBox="0 0 32 32"><path fill="none" stroke="#fff" style="stroke:var(--color1,#fff)" stroke-linejoin="round" stroke-linecap="round" stroke-width="2.133" d="M2.189 16.585c.516 7.14 6.773 12.949 14.261 13.269 5.282.22 10.007-2.163 12.843-5.92 1.173-1.54.544-2.566-1.417-2.219-.96.166-1.948.235-2.978.192-7.002-.277-12.73-5.946-12.757-12.642v-.1c0-1.798.396-3.504 1.104-5.035l-.031.074c.772-1.717-.158-2.537-1.948-1.801-5.67 2.315-9.549 7.846-9.077 14.18z"/></symbol><symbol id="sun" viewBox="0 0 32 32"><path fill="none" stroke="#fff" style="stroke:var(--color1,#fff)" stroke-linejoin="round" stroke-linecap="round" stroke-width="2" d="M16 26c5.523 0 10-4.477 10-10S21.523 6 16 6v0C10.477 6 6 10.477 6 16s4.477 10 10 10v0z"/><path fill="none" stroke="#fff" style="stroke:var(--color1,#fff)" stroke-linejoin="round" stroke-linecap="round" stroke-width="3" d="m25.814 6.186.182-.182M6.004 25.996l.182-.182M16 2.112V2m0 28v-.112M2.112 16H2m28 0h-.112M6.186 6.186l-.182-.182m19.992 19.992-.182-.182"/></symbol><symbol id="icon-search" viewBox="0 0 32 32"><path fill="none" stroke="currentColor" style="stroke-width:2.3111px" d="M26.667 14.667c0 6.627-5.373 12-12 12s-12-5.373-12-12 5.373-12 12-12 12 5.373 12 12zM28.001 28l-5.8-5.8"/></symbol><symbol id="icon-star" viewBox="0 0 32 32"><path d="M24.626 30a1.005 1.005 0 0 1-.587-.187l-8.038-5.828-8.038 5.828a1.003 1.003 0 0 1-1.18-.005 1.003 1.003 0 0 1-.354-1.126l3.135-9.286-8.125-5.572a.999.999 0 0 1 .563-1.825h10.024l3.025-9.309a.996.996 0 0 1 .951-.691 1.002 1.002 0 0 1 .951.691l3.025 9.313h10.024a1.001 1.001 0 0 1 .566 1.825l-8.128 5.569 3.133 9.283a1.004 1.004 0 0 1-.489 1.21.99.99 0 0 1-.456.111z"/></symbol><symbol id="icon-star-half" viewBox="0 0 32 32"><path fill="none" stroke="#000" style="stroke:var(--color1,#000)" stroke-linejoin="round" stroke-width="1.778" d="M30 13H19.25L16 3l-3.25 10H2l8.75 6-3.375 10L16 22.75 24.625 29 21.25 19 30 13z"/><path d="M16 3v19.75L7.375 29l3.375-10L2 13h10.75L16 3z"/></symbol><symbol id="icon-star-outline" viewBox="0 0 32 32"><path stroke-linejoin="round" stroke-width="1.778" d="M30 13H19.25L16 3l-3.25 10H2l8.75 6-3.375 10L16 22.75 24.625 29 21.25 19 30 13z"/></symbol><symbol id="heart" viewBox="0 0 34 32"><path fill="#f87719" style="fill:var(--color1,#f87719)" d="m17.231 31.705-2.412-2.412C5.859 21.367.001 16.025.001 9.478.001 4.136 4.136.001 9.478.001c2.929 0 5.858 1.378 7.754 3.618 1.895-2.24 4.825-3.618 7.754-3.618 5.342 0 9.477 4.135 9.477 9.477 0 6.548-5.858 11.889-14.818 19.815l-2.412 2.412z"/></symbol><symbol id="close-outline" viewBox="0 0 32 32"><path stroke-linejoin="round" stroke-linecap="round" stroke-width="1.333" d="M23 23 9 9m14 0L9 23"/></symbol><symbol id="linkedin" viewBox="0 0 32 32"><path d="M16 0C7.162 0 0 7.162 0 16s7.162 16 16 16 16-7.163 16-16S24.837 0 16 0zm9.988 25.981a13.961 13.961 0 0 1-4.488 3.025 13.982 13.982 0 0 1-5.5 1.106c-1.906 0-3.756-.375-5.5-1.106a14.086 14.086 0 0 1-4.487-3.025 13.961 13.961 0 0 1-3.025-4.488c-.738-1.738-1.113-3.587-1.113-5.494s.375-3.756 1.106-5.5A14.18 14.18 0 0 1 10.5 2.981c1.744-.731 3.594-1.106 5.5-1.106s3.756.375 5.5 1.106a14.102 14.102 0 0 1 4.488 3.025c1.3 1.3 2.319 2.806 3.025 4.488a13.986 13.986 0 0 1 1.106 5.5c0 1.906-.375 3.756-1.106 5.5a14.102 14.102 0 0 1-3.025 4.488z"/><path d="M8.406 12.713h3.119v9.981H8.406zM9.9 8c-1.15 0-1.906.744-1.906 1.731 0 .969.731 1.731 1.863 1.731h.025c1.175 0 1.906-.769 1.9-1.731C11.757 8.743 11.051 8 9.901 8zm10.144 4.619c-1.788 0-2.906.975-3.113 1.662v-1.569h-3.506c.044.831 0 9.981 0 9.981h3.506v-5.394c0-.306-.012-.606.075-.819.238-.6.756-1.225 1.688-1.225 1.219 0 1.769.925 1.769 2.275v5.163h3.538v-5.55c0-3.088-1.738-4.525-3.956-4.525z"/></symbol><symbol viewBox="0 0 32 32"><path d="M13.573 22.677c.16 0 .281-.005.361-.016a.419.419 0 0 0 .239-.142l.001-.001c.08-.084.12-.205.12-.365l-.005-.743a132.7 132.7 0 0 1-.005-1.125l-.251.044c-.15.025-.323.039-.5.039l-.112-.002h.005a4.616 4.616 0 0 1-.789-.081l.029.005a1.683 1.683 0 0 1-.734-.331l.004.003a1.388 1.388 0 0 1-.477-.661l-.003-.01-.109-.252a2.7 2.7 0 0 0-.348-.561l.004.005a1.338 1.338 0 0 0-.469-.413l-.007-.003-.076-.053a.765.765 0 0 1-.14-.132l-.001-.001a.61.61 0 0 1-.097-.148l-.002-.004c-.021-.051-.004-.093.053-.125a.707.707 0 0 1 .32-.049h-.002l.219.033c.147.028.327.116.541.261.213.147.391.335.529.568.168.299.369.527.607.683.199.142.446.229.713.235h.001c.24 0 .448-.017.623-.053.186-.039.351-.096.505-.171l-.013.006c.065-.487.243-.863.533-1.124a7.48 7.48 0 0 1-1.171-.209l.052.012a4.44 4.44 0 0 1-1.048-.438l.021.011a2.981 2.981 0 0 1-.876-.725l-.004-.005c-.232-.292-.423-.673-.573-1.147a5.328 5.328 0 0 1-.223-1.545l.001-.098v.005c0-.88.288-1.631.863-2.249-.269-.663-.244-1.405.076-2.228.212-.067.525-.017.94.147s.72.304.912.421c.193.116.347.213.464.293a7.594 7.594 0 0 1 2.074-.283h.024-.001c.72 0 1.42.093 2.097.284l.413-.263c.285-.173.62-.335 1.005-.48.387-.147.681-.187.885-.12.328.823.357 1.565.087 2.227.576.62.864 1.369.864 2.251 0 .619-.075 1.167-.224 1.644s-.343.859-.579 1.147a3.068 3.068 0 0 1-.87.719l-.016.008a4.363 4.363 0 0 1-.995.419l-.031.008a7.045 7.045 0 0 1-1.089.193l-.031.003c.379.327.568.844.568 1.551v2.609c0 .124.019.224.055.301a.305.305 0 0 0 .173.158l.002.001c.08.028.152.047.213.053.063.008.151.012.267.012h-5.591z"/><path d="M16 26.667c5.891 0 10.667-4.776 10.667-10.667S21.891 5.333 16 5.333 5.333 10.109 5.333 16 10.109 26.667 16 26.667zm0 2.666C8.636 29.333 2.667 23.364 2.667 16S8.636 2.667 16 2.667 29.333 8.636 29.333 16 23.364 29.333 16 29.333z"/></symbol><symbol id="github" viewBox="0 0 32 32"><path d="M15.938.438C7.137.438 0 7.574 0 16.376 0 23.418 4.567 29.392 10.899 31.5c.796.148 1.089-.346 1.089-.767 0-.38-.015-1.636-.022-2.967-4.434.964-5.37-1.881-5.37-1.881-.725-1.842-1.77-2.332-1.77-2.332-1.446-.989.109-.969.109-.969 1.601.113 2.443 1.642 2.443 1.642 1.421 2.437 3.728 1.732 4.638 1.325.143-1.03.556-1.733 1.012-2.131-3.54-.403-7.261-1.77-7.261-7.877 0-1.74.623-3.162 1.642-4.278-.165-.402-.711-2.023.154-4.218 0 0 1.338-.428 4.384 1.634a15.278 15.278 0 0 1 3.989-.536 15.32 15.32 0 0 1 3.993.536c3.042-2.062 4.379-1.634 4.379-1.634.867 2.195.322 3.816.156 4.218 1.022 1.116 1.64 2.538 1.64 4.278 0 6.122-3.729 7.47-7.277 7.864.572.495 1.081 1.465 1.081 2.951 0 2.133-.018 3.849-.018 4.374 0 .424.287.921 1.095.765 6.329-2.11 10.89-8.082 10.89-15.122 0-8.803-7.136-15.938-15.938-15.938z"/><path d="M5.969 23.142c-.035.079-.16.103-.273.049-.116-.052-.181-.16-.143-.239.034-.081.159-.104.274-.049.116.052.182.161.142.24zm.784.699c-.076.07-.225.038-.325-.074-.104-.111-.124-.26-.047-.331.078-.07.223-.038.327.074.104.112.125.26.045.331zm.538.895c-.098.068-.258.004-.356-.137-.098-.142-.098-.312.002-.38s.256-.007.356.134c.098.144.098.314-.002.384zm.91 1.037c-.087.096-.273.07-.41-.061-.139-.128-.178-.311-.09-.407s.276-.069.413.061c.138.128.181.312.088.407zm1.175.35c-.038.125-.218.181-.398.128-.18-.055-.298-.201-.262-.327.037-.126.217-.185.399-.128.18.054.298.2.261.326zm1.338.148c.005.131-.149.241-.338.243-.191.004-.345-.102-.347-.232 0-.133.15-.241.34-.244s.345.102.345.233zm1.314-.05c.023.128-.109.26-.297.295-.185.034-.356-.045-.38-.172-.023-.131.111-.263.296-.297.188-.033.357.044.381.175z"/></symbol><symbol id="icon-arrow-up2" viewBox="0 0 32 32"><path d="m27.414 12.586-10-10a2 2 0 0 0-2.828 0l-10 10a2 2 0 1 0 2.828 2.828L14 8.828V28a2 2 0 1 0 4 0V8.828l6.586 6.586c.39.39.902.586 1.414.586s1.024-.195 1.414-.586a2 2 0 0 0 0-2.828z"/></symbol></defs></svg>