<svg xmlns="http://www.w3.org/2000/svg" version="1.1" xmlns:xlink="http://www.w3.org/1999/xlink" xmlns:svgjs="http://svgjs.com/svgjs" width="8.4607019mm" height="10.502439mm"><svg xmlns:dc="http://purl.org/dc/elements/1.1/" xmlns:cc="http://creativecommons.org/ns#" xmlns:rdf="http://www.w3.org/1999/02/22-rdf-syntax-ns#" xmlns:svg="http://www.w3.org/2000/svg" xmlns="http://www.w3.org/2000/svg" xmlns:sodipodi="http://sodipodi.sourceforge.net/DTD/sodipodi-0.dtd" xmlns:inkscape="http://www.inkscape.org/namespaces/inkscape" width="8.4607019mm" height="10.502439mm" viewBox="0 0 8.4607022 10.502437" version="1.1" id="SvgjsSvg1075" inkscape:version="0.92.3 (2405546, 2018-03-11)" sodipodi:docname="pop-corn-food.svg">
  <defs id="SvgjsDefs1074"></defs>
  <sodipodi:namedview id="SvgjsSodipodi:namedview1073" pagecolor="#ffffff" bordercolor="#666666" borderopacity="1.0" inkscape:pageopacity="0.0" inkscape:pageshadow="2" inkscape:zoom="3.06" inkscape:cx="91.620476" inkscape:cy="6.8830535" inkscape:document-units="mm" inkscape:current-layer="layer1" showgrid="false" fit-margin-top="1" fit-margin-bottom="1" fit-margin-right="1" fit-margin-left="1" inkscape:window-width="1853" inkscape:window-height="1025" inkscape:window-x="67" inkscape:window-y="27" inkscape:window-maximized="1"></sodipodi:namedview>
  <metadata id="SvgjsMetadata1072">
    <rdf:rdf>
      <cc:work rdf:about="">
        <dc:format>image/svg+xml</dc:format>
        <dc:type rdf:resource="http://purl.org/dc/dcmitype/StillImage"></dc:type>
        <dc:title></dc:title>
      </cc:work>
    </rdf:rdf>
  </metadata>
  <g inkscape:label="Capa 1" inkscape:groupmode="layer" id="SvgjsG1071" transform="translate(-81.592083,-112.78136)">
    <g transform="matrix(0.35277777,0,0,-0.35277777,-59.301839,242.40625)" id="SvgjsG1070">
      <g transform="translate(406.8984,356.5972)" id="SvgjsG1069">
        <path inkscape:connector-curvature="0" id="SvgjsPath1068" style="fill:#efece5;fill-opacity:1;fill-rule:nonzero;stroke:none" d="m 0,0 c -0.064,0.169 -0.102,0.35 -0.102,0.542 0,0.843 -0.683,1.527 -1.525,1.527 -0.787,0 -1.432,-0.593 -1.518,-1.357 l 0.124,-0.791 2.492,-16.013 h 1.668 z"></path>
      </g>
      <g transform="translate(403.7441,357.1396)" id="SvgjsG1067">
        <path inkscape:connector-curvature="0" id="SvgjsPath1066" style="fill:#a6cf5a;fill-opacity:1;fill-rule:nonzero;stroke:none" d="M 0,0 C 0,-0.222 0.049,-0.432 0.133,-0.622 L 0.01,0.169 C 0.006,0.114 0,0.058 0,0"></path>
      </g>
      <g transform="translate(406.7969,357.1396)" id="SvgjsG1065">
        <path inkscape:connector-curvature="0" id="SvgjsPath1064" style="fill:#a6cf5a;fill-opacity:1;fill-rule:nonzero;stroke:none" d="M 0,0 C 0,-0.192 0.037,-0.374 0.102,-0.542 L 0.039,0.337 C 0.016,0.229 0,0.116 0,0"></path>
      </g>
      <g transform="translate(409.9199,356.6836)" id="SvgjsG1063">
        <path inkscape:connector-curvature="0" id="SvgjsPath1062" style="fill:#d72e2d;fill-opacity:1;fill-rule:nonzero;stroke:none" d="m 0,0 c -0.045,0.144 -0.07,0.297 -0.07,0.456 0,0.843 -0.684,1.526 -1.526,1.526 -0.726,0 -1.332,-0.508 -1.488,-1.189 l 0.063,-0.879 1.138,-16.093 h 2.297 z"></path>
      </g>
      <g transform="translate(409.8496,357.1396)" id="SvgjsG1061">
        <path inkscape:connector-curvature="0" id="SvgjsPath1060" style="fill:#a6cf5a;fill-opacity:1;fill-rule:nonzero;stroke:none" d="M 0,0 C 0,-0.159 0.025,-0.312 0.07,-0.456 L 0.049,0.374 C 0.018,0.254 0,0.129 0,0"></path>
      </g>
      <g transform="translate(412.8594,356.7827)" id="SvgjsG1059">
        <path inkscape:connector-curvature="0" id="SvgjsPath1058" style="fill:#a6cf5a;fill-opacity:1;fill-rule:nonzero;stroke:none" d="m 0,0 c 0.029,0.115 0.045,0.234 0.045,0.357 0,0.097 -0.012,0.191 -0.027,0.282 z"></path>
      </g>
      <g transform="translate(411.377,358.666)" id="SvgjsG1057">
        <path inkscape:connector-curvature="0" id="SvgjsPath1056" style="fill:#efece5;fill-opacity:1;fill-rule:nonzero;stroke:none" d="m 0,0 c -0.713,0 -1.311,-0.491 -1.479,-1.152 l 0.022,-0.83 0.414,-16.179 H 1.064 L 1.482,-1.883 1.5,-1.244 C 1.367,-0.536 0.744,0 0,0"></path>
      </g>
      <g transform="translate(415.8828,356.6758)" id="SvgjsG1055">
        <path inkscape:connector-curvature="0" id="SvgjsPath1054" style="fill:#a6cf5a;fill-opacity:1;fill-rule:nonzero;stroke:none" d="m 0,0 c 0.047,0.146 0.072,0.302 0.072,0.464 0,0.084 -0.008,0.167 -0.021,0.248 z"></path>
      </g>
      <g transform="translate(414.4297,358.666)" id="SvgjsG1053">
        <path inkscape:connector-curvature="0" id="SvgjsPath1052" style="fill:#be202d;fill-opacity:1;fill-rule:nonzero;stroke:none" d="m 0,0 c -0.844,0 -1.525,-0.684 -1.525,-1.526 0,-0.123 -0.016,-0.243 -0.045,-0.357 l -0.418,-16.278 h 2.3 L 1.453,-1.99 1.504,-1.278 C 1.385,-0.553 0.758,0 0,0"></path>
      </g>
      <g transform="translate(417.4824,358.666)" id="SvgjsG1051">
        <path inkscape:connector-curvature="0" id="SvgjsPath1050" style="fill:#e0dad2;fill-opacity:1;fill-rule:nonzero;stroke:none" d="m 0,0 c -0.844,0 -1.527,-0.684 -1.527,-1.526 0,-0.162 -0.026,-0.318 -0.073,-0.464 l -1.14,-16.171 h 1.664 l 2.508,16.108 0.091,0.59 C 1.488,-0.649 0.822,0 0,0"></path>
      </g>
      <g transform="translate(418.9141,356.6133)" id="SvgjsG1049">
        <path inkscape:connector-curvature="0" id="SvgjsPath1048" style="fill:#a6cf5a;fill-opacity:1;fill-rule:nonzero;stroke:none" d="m 0,0 c 0.061,0.164 0.094,0.341 0.094,0.526 0,0.022 -0.002,0.043 -0.002,0.064 z"></path>
      </g>
      <g transform="translate(419.0488,357.4844)" id="SvgjsG1047">
        <path inkscape:connector-curvature="0" id="SvgjsPath1046" style="fill:#a6cf5a;fill-opacity:1;fill-rule:nonzero;stroke:none" d="M 0,0 C -0.018,-0.073 -0.027,-0.146 -0.033,-0.219 Z"></path>
      </g>
      <g transform="translate(419.0488,357.4844)" id="SvgjsG1045">
        <path inkscape:connector-curvature="0" id="SvgjsPath1044" style="fill:#be202d;fill-opacity:1;fill-rule:nonzero;stroke:none" d="m 0,0 -0.033,-0.219 c -0.004,-0.042 -0.008,-0.084 -0.008,-0.126 0,-0.185 -0.033,-0.362 -0.094,-0.526 l -2.508,-16.108 h 1.25 l 2.407,15.183 0.47,2.978 C 0.76,1.182 0.156,0.676 0,0"></path>
      </g>
      <g transform="translate(403.877,356.5181)" id="SvgjsG1043">
        <path inkscape:connector-curvature="0" id="SvgjsPath1042" style="fill:#d72e2d;fill-opacity:1;fill-rule:nonzero;stroke:none" d="m 0,0 c -0.084,0.19 -0.133,0.4 -0.133,0.622 0,0.842 -0.683,1.526 -1.525,1.526 l 0.472,-2.978 2.407,-15.183 h 1.271 z"></path>
      </g>
      <g transform="translate(415.5449,360.627)" id="SvgjsG1041">
        <path inkscape:connector-curvature="0" id="SvgjsPath1040" style="fill:#eaddb6;fill-opacity:1;fill-rule:nonzero;stroke:none" d="M 0,0 C 0.016,-0.097 0.045,-0.191 0.088,-0.279 0.061,-0.284 0.029,-0.291 0,-0.299 -0.035,-0.266 -0.072,-0.234 -0.115,-0.208 -0.066,-0.145 -0.027,-0.075 0,0 m -4.646,-3.027 c -0.008,-0.016 -0.016,-0.034 -0.024,-0.051 -0.027,0.052 -0.062,0.099 -0.101,0.143 0.039,-0.035 0.082,-0.066 0.125,-0.092 M -5.279,0.08 c 0.004,-0.058 0.011,-0.115 0.025,-0.169 -0.008,0 -0.016,0.001 -0.025,0.001 -0.076,0 -0.151,-0.011 -0.221,-0.03 -0.027,0.023 -0.057,0.043 -0.084,0.063 0.01,0.013 0.02,0.026 0.027,0.039 0.1,0.016 0.194,0.05 0.278,0.096 m 1.681,-1.777 c 0.086,0.092 0.153,0.201 0.192,0.323 0.049,-0.047 0.107,-0.085 0.166,-0.119 -0.135,-0.038 -0.26,-0.109 -0.358,-0.204 m 7.217,1.223 C 3.316,-0.186 2.861,-0.166 2.535,-0.403 2.52,-0.393 2.506,-0.386 2.49,-0.377 2.746,-0.036 2.711,0.45 2.395,0.75 2.094,1.038 1.635,1.059 1.311,0.821 0.973,1.041 0.516,0.997 0.23,0.694 0.152,0.612 0.094,0.519 0.055,0.419 0,0.838 -0.355,1.162 -0.789,1.162 c -0.19,0 -0.363,-0.062 -0.504,-0.166 -0.031,0.025 -0.062,0.049 -0.096,0.071 0.11,0.143 0.176,0.323 0.176,0.518 0,0.471 -0.381,0.851 -0.851,0.851 -0.038,0 -0.077,-0.003 -0.112,-0.008 0.006,0.037 0.008,0.073 0.008,0.113 0,0.469 -0.381,0.851 -0.852,0.851 -0.216,0 -0.41,-0.081 -0.56,-0.213 -0.027,0.446 -0.397,0.8 -0.85,0.8 -0.47,0 -0.849,-0.381 -0.849,-0.852 0,-0.073 0.009,-0.145 0.025,-0.212 -0.008,0 -0.016,0 -0.025,0 -0.393,0 -0.719,-0.262 -0.821,-0.619 -0.134,0.089 -0.295,0.14 -0.468,0.14 -0.469,0 -0.85,-0.38 -0.85,-0.851 0,-0.074 0.012,-0.145 0.027,-0.212 -0.007,0 -0.017,0 -0.027,0 -0.086,0 -0.168,-0.013 -0.246,-0.037 h -0.002 c -0.316,0 -0.592,-0.173 -0.74,-0.429 -0.051,-0.024 -0.1,-0.052 -0.147,-0.086 -0.336,0.22 -0.793,0.176 -1.08,-0.127 -0.24,-0.254 -0.293,-0.615 -0.166,-0.919 -0.316,0.136 -0.699,0.068 -0.949,-0.197 -0.074,-0.078 -0.131,-0.168 -0.17,-0.263 -0.055,0.011 -0.111,0.017 -0.166,0.017 -0.418,0 -0.764,-0.3 -0.836,-0.696 -0.398,-0.073 -0.697,-0.42 -0.697,-0.836 0,-0.47 0.381,-0.852 0.851,-0.852 0.157,0 0.299,0.042 0.426,0.115 0.125,-0.073 0.27,-0.115 0.426,-0.115 0.457,0 0.828,0.36 0.848,0.811 0.082,-0.069 0.173,-0.121 0.267,-0.155 -0.029,-0.087 -0.045,-0.18 -0.045,-0.277 0,-0.471 0.379,-0.853 0.852,-0.853 0.156,0 0.303,0.044 0.428,0.118 0.064,-0.073 0.142,-0.134 0.228,-0.182 0.029,-0.059 0.063,-0.114 0.104,-0.165 -0.313,-0.126 -0.534,-0.432 -0.534,-0.789 0,-0.073 0.01,-0.145 0.03,-0.213 -0.01,0 -0.02,10e-4 -0.03,10e-4 -0.468,0 -0.849,-0.381 -0.849,-0.851 0,-0.471 0.381,-0.851 0.849,-0.851 0.159,0 0.303,0.043 0.43,0.117 0.156,-0.177 0.385,-0.288 0.639,-0.288 0.468,0 0.849,0.382 0.849,0.852 0,0.214 -0.08,0.407 -0.209,0.557 0.149,-0.132 0.344,-0.21 0.557,-0.21 0.469,0 0.852,0.381 0.852,0.851 0,0.101 -0.02,0.197 -0.053,0.287 0.09,-0.033 0.187,-0.051 0.287,-0.051 0.344,0 0.641,0.203 0.775,0.496 0.145,-0.261 0.424,-0.437 0.743,-0.437 0.158,0 0.302,0.043 0.429,0.117 0.156,-0.176 0.385,-0.287 0.637,-0.287 0.469,0 0.85,0.378 0.851,0.847 0.1,-0.041 0.209,-0.065 0.325,-0.065 0.158,0 0.304,0.043 0.429,0.118 0.065,-0.072 0.141,-0.134 0.227,-0.181 -0.359,-0.1 -0.623,-0.429 -0.623,-0.819 0,-0.47 0.383,-0.852 0.853,-0.852 0.157,0 0.303,0.044 0.428,0.118 0.156,-0.176 0.383,-0.288 0.639,-0.288 0.469,0 0.849,0.382 0.849,0.852 0,0.3 -0.156,0.564 -0.392,0.715 0.111,0.144 0.178,0.323 0.178,0.518 0,0.135 -0.034,0.263 -0.088,0.377 0.228,0.02 0.429,0.131 0.572,0.296 0.019,-0.025 0.043,-0.049 0.066,-0.072 0.114,-0.108 0.248,-0.177 0.389,-0.21 0.041,-0.139 0.117,-0.27 0.231,-0.377 0.339,-0.323 0.878,-0.309 1.203,0.032 0.136,0.144 0.213,0.325 0.23,0.51 0.039,0.03 0.078,0.062 0.113,0.101 0.313,0.327 0.311,0.837 0.008,1.164 0.317,0.341 0.301,0.875 -0.039,1.196"></path>
      </g>
      <g transform="translate(415.3984,357.2007)" id="SvgjsG1039">
        <path inkscape:connector-curvature="0" id="SvgjsPath1038" style="fill:#ddcaab;fill-opacity:1;fill-rule:nonzero;stroke:none" d="M 0,0 C 0,-0.095 0.014,-0.19 0.047,-0.281 0.02,-0.282 -0.01,-0.284 -0.041,-0.288 -0.07,-0.25 -0.104,-0.216 -0.141,-0.185 -0.086,-0.131 -0.039,-0.068 0,0 m -4.881,-2.318 c -0.012,-0.015 -0.021,-0.03 -0.031,-0.046 -0.022,0.053 -0.049,0.103 -0.08,0.151 0.035,-0.038 0.07,-0.074 0.111,-0.105 M -5.09,0.764 C -5.094,0.708 -5.094,0.652 -5.086,0.597 -5.096,0.6 -5.105,0.601 -5.115,0.603 c -0.072,0.009 -0.143,0.009 -0.213,0 -0.024,0.024 -0.049,0.048 -0.076,0.07 0.013,0.012 0.023,0.024 0.035,0.036 0.098,0.001 0.193,0.021 0.279,0.055 m 1.393,-1.933 c 0.093,0.076 0.172,0.173 0.228,0.285 0.041,-0.051 0.088,-0.096 0.143,-0.135 -0.137,-0.019 -0.264,-0.072 -0.371,-0.15 m 7.127,0.241 c -0.252,0.317 -0.694,0.396 -1.039,0.21 -0.012,0.01 -0.024,0.021 -0.037,0.031 0.289,0.295 0.322,0.769 0.054,1.101 C 2.154,0.73 1.715,0.81 1.369,0.625 1.072,0.88 0.627,0.895 0.309,0.641 0.225,0.572 0.156,0.489 0.104,0.398 0.107,0.809 -0.193,1.168 -0.613,1.225 -0.795,1.25 -0.973,1.213 -1.123,1.13 c -0.025,0.03 -0.053,0.057 -0.082,0.081 0.125,0.125 0.213,0.29 0.238,0.478 0.061,0.453 -0.258,0.872 -0.711,0.933 -0.039,0.005 -0.074,0.007 -0.109,0.007 0.008,0.035 0.016,0.07 0.021,0.107 0.061,0.453 -0.257,0.871 -0.711,0.932 C -2.684,3.697 -2.885,3.644 -3.047,3.536 -3.014,3.971 -3.326,4.36 -3.762,4.419 -4.217,4.48 -4.635,4.162 -4.695,3.708 -4.705,3.637 -4.703,3.567 -4.695,3.498 -4.705,3.5 -4.713,3.502 -4.723,3.504 -5.1,3.555 -5.449,3.343 -5.596,3.012 -5.713,3.114 -5.859,3.186 -6.025,3.208 -6.48,3.269 -6.898,2.95 -6.961,2.496 c -0.01,-0.071 -0.008,-0.141 0,-0.21 -0.01,0.002 -0.018,0.005 -0.027,0.005 -0.08,0.012 -0.162,0.01 -0.242,-0.003 L -7.232,2.289 C -7.539,2.33 -7.826,2.198 -8.002,1.97 -8.053,1.954 -8.105,1.933 -8.154,1.907 -8.451,2.163 -8.898,2.179 -9.215,1.924 -9.479,1.71 -9.578,1.368 -9.494,1.058 -9.783,1.23 -10.158,1.215 -10.436,0.992 -10.52,0.925 -10.584,0.847 -10.637,0.76 c -0.049,0.017 -0.101,0.031 -0.158,0.037 -0.402,0.055 -0.775,-0.19 -0.896,-0.563 -0.395,-0.019 -0.729,-0.314 -0.784,-0.717 -0.058,-0.454 0.26,-0.871 0.713,-0.934 0.151,-0.02 0.295,0.003 0.426,0.056 0.111,-0.086 0.248,-0.145 0.397,-0.166 0.441,-0.059 0.845,0.239 0.925,0.674 0.071,-0.078 0.149,-0.141 0.239,-0.186 -0.041,-0.08 -0.071,-0.168 -0.082,-0.262 -0.063,-0.454 0.255,-0.872 0.711,-0.932 0.152,-0.021 0.298,10e-4 0.431,0.056 0.051,-0.079 0.119,-0.148 0.197,-0.205 0.018,-0.061 0.043,-0.118 0.079,-0.173 -0.319,-0.081 -0.571,-0.347 -0.62,-0.692 -0.009,-0.07 -0.009,-0.142 0,-0.21 -0.009,0.002 -0.017,0.004 -0.027,0.006 -0.455,0.061 -0.873,-0.258 -0.932,-0.712 -0.062,-0.453 0.256,-0.872 0.711,-0.932 0.151,-0.021 0.297,10e-4 0.43,0.056 0.127,-0.19 0.334,-0.327 0.578,-0.36 0.453,-0.061 0.871,0.257 0.934,0.711 0.027,0.207 -0.026,0.404 -0.133,0.565 0.129,-0.145 0.307,-0.247 0.512,-0.274 0.453,-0.062 0.871,0.256 0.933,0.71 0.014,0.098 0.006,0.194 -0.013,0.284 0.084,-0.043 0.173,-0.073 0.271,-0.086 0.33,-0.045 0.643,0.113 0.811,0.379 0.107,-0.272 0.353,-0.478 0.662,-0.52 0.15,-0.021 0.299,0.003 0.429,0.057 0.127,-0.189 0.334,-0.327 0.579,-0.36 0.453,-0.061 0.867,0.256 0.931,0.707 0.092,-0.053 0.195,-0.089 0.305,-0.104 0.15,-0.021 0.299,0.002 0.432,0.057 0.052,-0.079 0.119,-0.146 0.193,-0.203 -0.359,-0.051 -0.656,-0.333 -0.707,-0.71 -0.061,-0.454 0.256,-0.873 0.711,-0.934 0.152,-0.019 0.299,0.003 0.431,0.058 0.127,-0.191 0.332,-0.328 0.577,-0.361 0.453,-0.061 0.873,0.258 0.933,0.712 0.039,0.291 -0.078,0.565 -0.285,0.742 0.125,0.124 0.213,0.289 0.238,0.477 0.018,0.131 0.002,0.258 -0.035,0.375 0.223,-0.01 0.432,0.071 0.59,0.212 0.018,-0.027 0.035,-0.054 0.055,-0.079 0.095,-0.118 0.215,-0.202 0.347,-0.253 0.022,-0.14 0.078,-0.276 0.172,-0.393 0.287,-0.357 0.811,-0.413 1.168,-0.127 0.151,0.122 0.248,0.287 0.287,0.464 0.043,0.022 0.086,0.05 0.125,0.082 0.342,0.276 0.409,0.768 0.157,1.123 0.353,0.289 0.408,0.805 0.119,1.16"></path>
      </g>
      <g transform="translate(406.8984,356.5972)" id="SvgjsG1037">
        <path inkscape:connector-curvature="0" id="SvgjsPath1036" style="fill:#efece5;fill-opacity:1;fill-rule:nonzero;stroke:none" d="m 0,0 c -0.064,0.169 -0.102,0.35 -0.102,0.542 0,0.843 -0.683,1.527 -1.525,1.527 -0.787,0 -1.432,-0.593 -1.518,-1.357 l 0.124,-0.791 2.492,-16.013 h 1.668 z"></path>
      </g>
      <g transform="translate(403.7441,357.1396)" id="SvgjsG1035">
        <path inkscape:connector-curvature="0" id="SvgjsPath1034" style="fill:#a6cf5a;fill-opacity:1;fill-rule:nonzero;stroke:none" d="M 0,0 C 0,-0.222 0.049,-0.432 0.133,-0.622 L 0.01,0.169 C 0.006,0.114 0,0.058 0,0"></path>
      </g>
      <g transform="translate(406.7969,357.1396)" id="SvgjsG1033">
        <path inkscape:connector-curvature="0" id="SvgjsPath1032" style="fill:#a6cf5a;fill-opacity:1;fill-rule:nonzero;stroke:none" d="M 0,0 C 0,-0.192 0.037,-0.374 0.102,-0.542 L 0.039,0.337 C 0.016,0.229 0,0.116 0,0"></path>
      </g>
      <g transform="translate(409.9199,356.6836)" id="SvgjsG1031">
        <path inkscape:connector-curvature="0" id="SvgjsPath1030" style="fill:#d72e2d;fill-opacity:1;fill-rule:nonzero;stroke:none" d="m 0,0 c -0.045,0.144 -0.07,0.297 -0.07,0.456 0,0.843 -0.684,1.526 -1.526,1.526 -0.726,0 -1.332,-0.508 -1.488,-1.189 l 0.063,-0.879 1.138,-16.093 h 2.297 z"></path>
      </g>
      <g transform="translate(409.8496,357.1396)" id="SvgjsG1029">
        <path inkscape:connector-curvature="0" id="SvgjsPath1028" style="fill:#a6cf5a;fill-opacity:1;fill-rule:nonzero;stroke:none" d="M 0,0 C 0,-0.159 0.025,-0.312 0.07,-0.456 L 0.049,0.374 C 0.018,0.254 0,0.129 0,0"></path>
      </g>
      <g transform="translate(412.8594,356.7827)" id="SvgjsG1027">
        <path inkscape:connector-curvature="0" id="SvgjsPath1026" style="fill:#a6cf5a;fill-opacity:1;fill-rule:nonzero;stroke:none" d="m 0,0 c 0.029,0.115 0.045,0.234 0.045,0.357 0,0.097 -0.012,0.191 -0.027,0.282 z"></path>
      </g>
      <g transform="translate(411.377,358.666)" id="SvgjsG1025">
        <path inkscape:connector-curvature="0" id="SvgjsPath1024" style="fill:#efece5;fill-opacity:1;fill-rule:nonzero;stroke:none" d="m 0,0 c -0.713,0 -1.311,-0.491 -1.479,-1.152 l 0.022,-0.83 0.414,-16.179 H 1.064 L 1.482,-1.883 1.5,-1.244 C 1.367,-0.536 0.744,0 0,0"></path>
      </g>
      <g transform="translate(411.1797,340.5049)" id="SvgjsG1023">
        <path inkscape:connector-curvature="0" id="SvgjsPath1022" style="fill:#e0dad2;fill-opacity:1;fill-rule:nonzero;stroke:none" d="m 0,0 h 1.262 l 0.418,16.278 0.017,0.639 c -0.133,0.708 -0.756,1.244 -1.5,1.244"></path>
      </g>
      <g transform="translate(415.8828,356.6758)" id="SvgjsG1021">
        <path inkscape:connector-curvature="0" id="SvgjsPath1020" style="fill:#a6cf5a;fill-opacity:1;fill-rule:nonzero;stroke:none" d="m 0,0 c 0.047,0.146 0.072,0.302 0.072,0.464 0,0.084 -0.008,0.167 -0.021,0.248 z"></path>
      </g>
      <g transform="translate(414.4297,358.666)" id="SvgjsG1019">
        <path inkscape:connector-curvature="0" id="SvgjsPath1018" style="fill:#be202d;fill-opacity:1;fill-rule:nonzero;stroke:none" d="m 0,0 c -0.844,0 -1.525,-0.684 -1.525,-1.526 0,-0.123 -0.016,-0.243 -0.045,-0.357 l -0.418,-16.278 h 2.3 L 1.453,-1.99 1.504,-1.278 C 1.385,-0.553 0.758,0 0,0"></path>
      </g>
      <g transform="translate(417.4824,358.666)" id="SvgjsG1017">
        <path inkscape:connector-curvature="0" id="SvgjsPath1016" style="fill:#e0dad2;fill-opacity:1;fill-rule:nonzero;stroke:none" d="m 0,0 c -0.844,0 -1.527,-0.684 -1.527,-1.526 0,-0.162 -0.026,-0.318 -0.073,-0.464 l -1.14,-16.171 h 1.664 l 2.508,16.108 0.091,0.59 C 1.488,-0.649 0.822,0 0,0"></path>
      </g>
      <g transform="translate(418.9141,356.6133)" id="SvgjsG1015">
        <path inkscape:connector-curvature="0" id="SvgjsPath1014" style="fill:#a6cf5a;fill-opacity:1;fill-rule:nonzero;stroke:none" d="m 0,0 c 0.061,0.164 0.094,0.341 0.094,0.526 0,0.022 -0.002,0.043 -0.002,0.064 z"></path>
      </g>
      <g transform="translate(419.0488,357.4844)" id="SvgjsG1013">
        <path inkscape:connector-curvature="0" id="SvgjsPath1012" style="fill:#a6cf5a;fill-opacity:1;fill-rule:nonzero;stroke:none" d="M 0,0 C -0.018,-0.073 -0.027,-0.146 -0.033,-0.219 Z"></path>
      </g>
      <g transform="translate(419.0488,357.4844)" id="SvgjsG1011">
        <path inkscape:connector-curvature="0" id="SvgjsPath1010" style="fill:#b12024;fill-opacity:1;fill-rule:nonzero;stroke:none" d="m 0,0 -0.033,-0.219 c -0.004,-0.042 -0.008,-0.084 -0.008,-0.126 0,-0.185 -0.033,-0.362 -0.094,-0.526 l -2.508,-16.108 h 1.25 l 2.407,15.183 0.47,2.978 C 0.76,1.182 0.156,0.676 0,0"></path>
      </g>
      <g transform="translate(403.877,356.5181)" id="SvgjsG1009">
        <path inkscape:connector-curvature="0" id="SvgjsPath1008" style="fill:#d72e2d;fill-opacity:1;fill-rule:nonzero;stroke:none" d="m 0,0 c -0.084,0.19 -0.133,0.4 -0.133,0.622 0,0.842 -0.683,1.526 -1.525,1.526 l 0.472,-2.978 2.407,-15.183 h 1.271 z"></path>
      </g>
      <g transform="translate(411.4277,360.6816)" id="SvgjsG1007">
        <path inkscape:connector-curvature="0" id="SvgjsPath1006" style="fill:#efece5;fill-opacity:1;fill-rule:nonzero;stroke:none" d="m 0,0 c 0.008,0.05 0.014,0.101 0.014,0.153 0,0.47 -0.383,0.852 -0.852,0.852 -0.416,0 -0.764,-0.3 -0.836,-0.696 -0.396,-0.074 -0.697,-0.42 -0.697,-0.837 0,-0.471 0.383,-0.852 0.851,-0.852 0.157,0 0.301,0.043 0.426,0.115 0.125,-0.072 0.272,-0.115 0.426,-0.115 0.471,0 0.854,0.381 0.854,0.852 C 0.186,-0.329 0.113,-0.145 0,0"></path>
      </g>
      <g transform="translate(411.6621,362.6104)" id="SvgjsG1005">
        <path inkscape:connector-curvature="0" id="SvgjsPath1004" style="fill:#efece5;fill-opacity:1;fill-rule:nonzero;stroke:none" d="m 0,0 c -0.006,0.03 -0.01,0.062 -0.01,0.094 0,0.289 0.239,0.524 0.526,0.524 0.257,0 0.468,-0.185 0.515,-0.429 C 1.275,0.145 1.459,-0.068 1.459,-0.326 1.459,-0.615 1.225,-0.85 0.934,-0.85 0.84,-0.85 0.75,-0.824 0.672,-0.779 0.596,-0.824 0.508,-0.85 0.41,-0.85 c -0.287,0 -0.523,0.235 -0.523,0.524 0,0.123 0.043,0.237 0.113,0.326"></path>
      </g>
      <g transform="translate(406.1758,360.041)" id="SvgjsG1003">
        <path inkscape:connector-curvature="0" id="SvgjsPath1002" style="fill:#efece5;fill-opacity:1;fill-rule:nonzero;stroke:none" d="m 0,0 c -0.004,0.03 -0.008,0.062 -0.008,0.093 0,0.289 0.235,0.524 0.524,0.524 0.257,0 0.468,-0.184 0.515,-0.428 0.242,-0.045 0.426,-0.259 0.426,-0.515 0,-0.289 -0.232,-0.525 -0.521,-0.525 -0.096,0 -0.188,0.027 -0.264,0.072 -0.076,-0.045 -0.166,-0.072 -0.26,-0.072 -0.293,0 -0.525,0.236 -0.525,0.525 0,0.123 0.043,0.236 0.113,0.326"></path>
      </g>
      <g transform="translate(414.2324,360.041)" id="SvgjsG1001">
        <path inkscape:connector-curvature="0" id="SvgjsPath1000" style="fill:#efece5;fill-opacity:1;fill-rule:nonzero;stroke:none" d="m 0,0 c -0.006,0.03 -0.01,0.062 -0.01,0.093 0,0.289 0.237,0.524 0.526,0.524 0.255,0 0.468,-0.184 0.515,-0.428 0.242,-0.045 0.428,-0.259 0.428,-0.515 0,-0.289 -0.234,-0.525 -0.525,-0.525 -0.096,0 -0.184,0.027 -0.262,0.072 -0.076,-0.045 -0.166,-0.072 -0.262,-0.072 -0.289,0 -0.523,0.236 -0.523,0.525 0,0.123 0.043,0.236 0.113,0.326"></path>
      </g>
    </g>
  </g>
</svg><style>@media (prefers-color-scheme: light) { :root { filter: none; } }
</style></svg>