<svg width="18" height="18" viewBox="0 0 18 18" fill="none" xmlns="http://www.w3.org/2000/svg">
<path d="M13.852 16.875C13.7336 16.8755 13.6181 16.8386 13.5219 16.7696L9.00048 13.4916L4.47903 16.7696C4.38243 16.8396 4.26606 16.8772 4.14673 16.8767C4.0274 16.8763 3.91129 16.8379 3.81521 16.7672C3.71912 16.6964 3.64803 16.5969 3.61221 16.4831C3.57639 16.3693 3.5777 16.247 3.61594 16.134L5.37938 10.9108L0.809069 7.77661C0.710073 7.7088 0.635356 7.61111 0.595836 7.49781C0.556316 7.3845 0.554063 7.26154 0.589407 7.14686C0.624751 7.03219 0.695839 6.93183 0.792285 6.86044C0.888732 6.78904 1.00548 6.75036 1.12548 6.75005H6.76384L8.4654 1.51352C8.50205 1.40047 8.57358 1.30193 8.6697 1.23204C8.76583 1.16216 8.88163 1.12451 9.00048 1.12451C9.11932 1.12451 9.23512 1.16216 9.33125 1.23204C9.42738 1.30193 9.4989 1.40047 9.53555 1.51352L11.2371 6.75181H16.8755C16.9956 6.75175 17.1126 6.79016 17.2094 6.86141C17.3061 6.93267 17.3775 7.03303 17.413 7.14778C17.4486 7.26254 17.4465 7.38568 17.407 7.49915C17.3675 7.61262 17.2928 7.71047 17.1936 7.77837L12.6216 10.9108L14.384 16.1325C14.4125 16.2171 14.4205 16.3072 14.4074 16.3955C14.3942 16.4837 14.3603 16.5676 14.3083 16.6401C14.2563 16.7127 14.1879 16.7718 14.1085 16.8127C14.0292 16.8535 13.9413 16.8749 13.852 16.875Z" fill="url(#paint0_linear_130_888)"/>
<defs>
<linearGradient id="paint0_linear_130_888" x1="2.62549" y1="2.25006" x2="13.8755" y2="17.2501" gradientUnits="userSpaceOnUse">
<stop stop-color="#F84119"/>
<stop offset="1" stop-color="#F89F19" stop-opacity="0.68"/>
</linearGradient>
</defs>
</svg>
