<svg aria-hidden="true" style="position: absolute; width: 0; height: 0; overflow: hidden;" version="1.1" xmlns="http://www.w3.org/2000/svg" xmlns:xlink="http://www.w3.org/1999/xlink">
<defs>
<symbol id="moon" viewBox="0 0 32 32">
<path fill="none" stroke="#fff" style="stroke: var(--color1, #fff)" stroke-linejoin="round" stroke-linecap="round" stroke-miterlimit="4" stroke-width="2.1333" d="M2.189 16.585c0.516 7.14 6.773 12.949 14.261 13.269 5.282 0.22 10.007-2.163 12.843-5.92 1.173-1.54 0.544-2.566-1.417-2.219-0.96 0.166-1.948 0.235-2.978 0.192-7.002-0.277-12.73-5.946-12.757-12.642-0-0.030-0-0.065-0-0.1 0-1.798 0.396-3.504 1.104-5.035l-0.031 0.074c0.772-1.717-0.158-2.537-1.948-1.801-5.67 2.315-9.549 7.846-9.077 14.18z"></path>
</symbol>
<symbol id="sun" viewBox="0 0 32 32">
<path fill="none" stroke="#fff" style="stroke: var(--color1, #fff)" stroke-linejoin="round" stroke-linecap="round" stroke-miterlimit="4" stroke-width="2" d="M16 26c5.523 0 10-4.477 10-10s-4.477-10-10-10v0c-5.523 0-10 4.477-10 10s4.477 10 10 10v0z"></path>
<path fill="none" stroke="#fff" style="stroke: var(--color1, #fff)" stroke-linejoin="round" stroke-linecap="round" stroke-miterlimit="4" stroke-width="3" d="M25.814 6.186l0.182-0.182M6.004 25.996l0.182-0.182M16 2.112v-0.112M16 30v-0.112M2.112 16h-0.112M30 16h-0.112M6.186 6.186l-0.182-0.182M25.996 25.996l-0.182-0.182"></path>
</symbol>
<symbol id="icon-search" viewBox="0 0 32 32">
  <path fill="none" stroke="currentColor" style="stroke-width: 2.3111" d="M26.667 14.667c0 6.627-5.373 12-12 12s-12-5.373-12-12c0-6.627 5.373-12 12-12s12 5.373 12 12z"></path>
  <path fill="none" stroke="currentColor" style="stroke-width: 2.3111" d="M28.001 28l-5.8-5.8"></path>
</symbol>
<symbol id="icon-star" viewBox="0 0 32 32">
<path d="M24.626 30c-0.21 0.001-0.416-0.065-0.587-0.187l-8.038-5.828-8.038 5.828c-0.172 0.124-0.379 0.191-0.591 0.19s-0.419-0.069-0.589-0.195c-0.171-0.126-0.297-0.303-0.361-0.505s-0.061-0.42 0.007-0.621l3.135-9.286-8.125-5.572c-0.176-0.121-0.309-0.294-0.379-0.496s-0.074-0.42-0.011-0.624c0.063-0.204 0.189-0.382 0.361-0.509s0.379-0.196 0.592-0.196h10.024l3.025-9.309c0.065-0.201 0.192-0.376 0.363-0.5s0.377-0.191 0.588-0.191c0.211 0 0.417 0.067 0.588 0.191s0.298 0.299 0.363 0.5l3.025 9.313h10.024c0.213-0 0.422 0.068 0.594 0.195s0.299 0.305 0.362 0.509c0.063 0.204 0.060 0.423-0.011 0.625s-0.203 0.376-0.379 0.496l-8.128 5.569 3.133 9.283c0.051 0.15 0.065 0.311 0.042 0.468s-0.084 0.306-0.176 0.435c-0.092 0.129-0.214 0.234-0.355 0.307s-0.297 0.111-0.456 0.111z"></path>
</symbol>
<symbol id="icon-star-half" viewBox="0 0 32 32">
<path fill="none" stroke="#000" style="stroke: var(--color1, #000)" stroke-linejoin="round" stroke-linecap="butt" stroke-miterlimit="4" stroke-width="1.7778" d="M30 13h-10.75l-3.25-10-3.25 10h-10.75l8.75 6-3.375 10 8.625-6.25 8.625 6.25-3.375-10 8.75-6z"></path>
<path d="M16 3v19.75l-8.625 6.25 3.375-10-8.75-6h10.75l3.25-10z"></path>
</symbol>
<symbol id="icon-star-outline" viewBox="0 0 32 32">
<path stroke-linejoin="round" stroke-linecap="butt" stroke-miterlimit="4" stroke-width="1.7778" d="M30 13h-10.75l-3.25-10-3.25 10h-10.75l8.75 6-3.375 10 8.625-6.25 8.625 6.25-3.375-10 8.75-6z"></path>
</symbol>
<symbol id="heart" viewBox="0 0 34 32">
<path fill="#f87719" style="fill: var(--color1, #f87719)" d="M17.231 31.705l-2.412-2.412c-8.96-7.926-14.818-13.268-14.818-19.815 0-5.342 4.135-9.477 9.477-9.477 2.929 0 5.858 1.378 7.754 3.618 1.895-2.24 4.825-3.618 7.754-3.618 5.342 0 9.477 4.135 9.477 9.477 0 6.548-5.858 11.889-14.818 19.815l-2.412 2.412z"></path>
</symbol>
<symbol id="close-outline" viewBox="0 0 32 32">
<path fill="" stroke="" style="" stroke-linejoin="round" stroke-linecap="round" stroke-miterlimit="4" stroke-width="1.3333" d="M23 23l-14-14M23 9l-14 14"></path>
</symbol>
<symbol id="linkedin" viewBox="0 0 32 32">
<path d="M16 0c-8.838 0-16 7.162-16 16s7.162 16 16 16 16-7.163 16-16-7.163-16-16-16zM25.988 25.981c-1.3 1.3-2.806 2.319-4.488 3.025-1.738 0.738-3.587 1.106-5.5 1.106-1.906 0-3.756-0.375-5.5-1.106-1.681-0.712-3.194-1.731-4.487-3.025-1.3-1.3-2.319-2.806-3.025-4.488-0.738-1.738-1.113-3.587-1.113-5.494s0.375-3.756 1.106-5.5c0.712-1.681 1.731-3.194 3.025-4.487 1.306-1.3 2.813-2.319 4.494-3.031 1.744-0.731 3.594-1.106 5.5-1.106s3.756 0.375 5.5 1.106c1.681 0.712 3.194 1.731 4.488 3.025 1.3 1.3 2.319 2.806 3.025 4.488 0.738 1.738 1.106 3.588 1.106 5.5 0 1.906-0.375 3.756-1.106 5.5-0.712 1.681-1.731 3.194-3.025 4.488z"></path>
<path d="M8.406 12.713h3.119v9.981h-3.119zM9.9 8c-1.15 0-1.906 0.744-1.906 1.731 0 0.969 0.731 1.731 1.863 1.731h0.025c1.175 0 1.906-0.769 1.9-1.731-0.025-0.988-0.731-1.731-1.881-1.731zM20.044 12.619c-1.788 0-2.906 0.975-3.113 1.662v-1.569h-3.506c0.044 0.831 0 9.981 0 9.981h3.506v-5.394c0-0.306-0.012-0.606 0.075-0.819 0.238-0.6 0.756-1.225 1.688-1.225 1.219 0 1.769 0.925 1.769 2.275v5.163h3.538v-5.55c0-3.088-1.738-4.525-3.956-4.525z"></path>
</symbol>
<symbol id="" viewBox="0 0 32 32">
<path d="M13.573 22.677c0.16 0 0.281-0.005 0.361-0.016 0.097-0.020 0.18-0.071 0.239-0.142l0.001-0.001c0.080-0.084 0.12-0.205 0.12-0.365l-0.005-0.743c-0.004-0.473-0.005-0.849-0.005-1.125l-0.251 0.044c-0.15 0.025-0.323 0.039-0.5 0.039-0.038 0-0.075-0.001-0.112-0.002l0.005 0c-0.272-0.005-0.534-0.032-0.789-0.081l0.029 0.005c-0.28-0.053-0.527-0.168-0.734-0.331l0.004 0.003c-0.221-0.168-0.388-0.397-0.477-0.661l-0.003-0.010-0.109-0.252c-0.099-0.212-0.214-0.395-0.348-0.561l0.004 0.005c-0.123-0.174-0.283-0.315-0.469-0.413l-0.007-0.003-0.076-0.053c-0.053-0.039-0.1-0.083-0.14-0.132l-0.001-0.001c-0.039-0.044-0.072-0.094-0.097-0.148l-0.002-0.004c-0.021-0.051-0.004-0.093 0.053-0.125 0.078-0.032 0.17-0.051 0.265-0.051 0.018 0 0.037 0.001 0.055 0.002l-0.002-0 0.219 0.033c0.147 0.028 0.327 0.116 0.541 0.261 0.213 0.147 0.391 0.335 0.529 0.568 0.168 0.299 0.369 0.527 0.607 0.683 0.199 0.142 0.446 0.229 0.713 0.235l0.001 0c0.24 0 0.448-0.017 0.623-0.053 0.186-0.039 0.351-0.096 0.505-0.171l-0.013 0.006c0.065-0.487 0.243-0.863 0.533-1.124-0.421-0.042-0.801-0.112-1.171-0.209l0.052 0.012c-0.391-0.109-0.732-0.255-1.048-0.438l0.021 0.011c-0.346-0.19-0.638-0.435-0.876-0.725l-0.004-0.005c-0.232-0.292-0.423-0.673-0.573-1.147-0.142-0.463-0.223-0.994-0.223-1.545 0-0.033 0-0.066 0.001-0.098l-0 0.005c0-0.88 0.288-1.631 0.863-2.249-0.269-0.663-0.244-1.405 0.076-2.228 0.212-0.067 0.525-0.017 0.94 0.147s0.72 0.304 0.912 0.421c0.193 0.116 0.347 0.213 0.464 0.293 0.622-0.179 1.336-0.283 2.074-0.283 0.008 0 0.016 0 0.024 0h-0.001c0.72 0 1.42 0.093 2.097 0.284l0.413-0.263c0.285-0.173 0.62-0.335 1.005-0.48 0.387-0.147 0.681-0.187 0.885-0.12 0.328 0.823 0.357 1.565 0.087 2.227 0.576 0.62 0.864 1.369 0.864 2.251 0 0.619-0.075 1.167-0.224 1.644s-0.343 0.859-0.579 1.147c-0.245 0.293-0.539 0.536-0.87 0.719l-0.016 0.008c-0.295 0.172-0.636 0.317-0.995 0.419l-0.031 0.008c-0.318 0.085-0.699 0.154-1.089 0.193l-0.031 0.003c0.379 0.327 0.568 0.844 0.568 1.551v2.609c0 0.124 0.019 0.224 0.055 0.301 0.035 0.074 0.097 0.131 0.173 0.158l0.002 0.001c0.080 0.028 0.152 0.047 0.213 0.053 0.063 0.008 0.151 0.012 0.267 0.012h-5.591z"></path>
<path d="M16 26.667c5.891 0 10.667-4.776 10.667-10.667s-4.776-10.667-10.667-10.667v0c-5.891 0-10.667 4.776-10.667 10.667s4.776 10.667 10.667 10.667v0zM16 29.333c-7.364 0-13.333-5.969-13.333-13.333s5.969-13.333 13.333-13.333 13.333 5.969 13.333 13.333-5.969 13.333-13.333 13.333z"></path>
</symbol>

<symbol id="github" viewBox="0 0 32 32">
<path d="M15.938 0.438c-8.801 0-15.938 7.136-15.938 15.938 0 7.042 4.567 13.016 10.899 15.124 0.796 0.148 1.089-0.346 1.089-0.767 0-0.38-0.015-1.636-0.022-2.967-4.434 0.964-5.37-1.881-5.37-1.881-0.725-1.842-1.77-2.332-1.77-2.332-1.446-0.989 0.109-0.969 0.109-0.969 1.601 0.113 2.443 1.642 2.443 1.642 1.421 2.437 3.728 1.732 4.638 1.325 0.143-1.030 0.556-1.733 1.012-2.131-3.54-0.403-7.261-1.77-7.261-7.877 0-1.74 0.623-3.162 1.642-4.278-0.165-0.402-0.711-2.023 0.154-4.218 0 0 1.338-0.428 4.384 1.634 1.271-0.353 2.635-0.53 3.989-0.536 1.355 0.006 2.719 0.183 3.993 0.536 3.042-2.062 4.379-1.634 4.379-1.634 0.867 2.195 0.322 3.816 0.156 4.218 1.022 1.116 1.64 2.538 1.64 4.278 0 6.122-3.729 7.47-7.277 7.864 0.572 0.495 1.081 1.465 1.081 2.951 0 2.133-0.018 3.849-0.018 4.374 0 0.424 0.287 0.921 1.095 0.765 6.329-2.11 10.89-8.082 10.89-15.122 0-8.803-7.136-15.938-15.938-15.938z"></path>
<path d="M5.969 23.142c-0.035 0.079-0.16 0.103-0.273 0.049-0.116-0.052-0.181-0.16-0.143-0.239 0.034-0.081 0.159-0.104 0.274-0.049 0.116 0.052 0.182 0.161 0.142 0.24zM6.753 23.841c-0.076 0.070-0.225 0.038-0.325-0.074-0.104-0.111-0.124-0.26-0.047-0.331 0.078-0.070 0.223-0.038 0.327 0.074 0.104 0.112 0.125 0.26 0.045 0.331zM7.291 24.736c-0.098 0.068-0.258 0.004-0.356-0.137-0.098-0.142-0.098-0.312 0.002-0.38s0.256-0.007 0.356 0.134c0.098 0.144 0.098 0.314-0.002 0.384zM8.201 25.773c-0.087 0.096-0.273 0.070-0.41-0.061-0.139-0.128-0.178-0.311-0.090-0.407s0.276-0.069 0.413 0.061c0.138 0.128 0.181 0.312 0.088 0.407zM9.376 26.123c-0.038 0.125-0.218 0.181-0.398 0.128-0.18-0.055-0.298-0.201-0.262-0.327 0.037-0.126 0.217-0.185 0.399-0.128 0.18 0.054 0.298 0.2 0.261 0.326zM10.714 26.271c0.005 0.131-0.149 0.241-0.338 0.243-0.191 0.004-0.345-0.102-0.347-0.232 0-0.133 0.15-0.241 0.34-0.244s0.345 0.102 0.345 0.233zM12.028 26.221c0.023 0.128-0.109 0.26-0.297 0.295-0.185 0.034-0.356-0.045-0.38-0.172-0.023-0.131 0.111-0.263 0.296-0.297 0.188-0.033 0.357 0.044 0.381 0.175z"></path>
</symbol>
<symbol id="icon-arrow-up2" viewBox="0 0 32 32">
<path d="M27.414 12.586l-10-10c-0.781-0.781-2.047-0.781-2.828 0l-10 10c-0.781 0.781-0.781 2.047 0 2.828s2.047 0.781 2.828 0l6.586-6.586v19.172c0 1.105 0.895 2 2 2s2-0.895 2-2v-19.172l6.586 6.586c0.39 0.39 0.902 0.586 1.414 0.586s1.024-0.195 1.414-0.586c0.781-0.781 0.781-2.047 0-2.828z"></path>
</symbol>
</defs>
</svg>
