<svg aria-hidden="true" style="position: absolute; width: 0; height: 0; overflow: hidden;" version="1.1" xmlns="http://www.w3.org/2000/svg" xmlns:xlink="http://www.w3.org/1999/xlink">
<defs>
<symbol id="moon" viewBox="0 0 32 32">
<path fill="none" stroke="#fff" style="stroke: var(--color1, #fff)" stroke-linejoin="round" stroke-linecap="round" stroke-miterlimit="4" stroke-width="2.1333" d="M2.189 16.585c0.516 7.14 6.773 12.949 14.261 13.269 5.282 0.22 10.007-2.163 12.843-5.92 1.173-1.54 0.544-2.566-1.417-2.219-0.96 0.166-1.948 0.235-2.978 0.192-7.002-0.277-12.73-5.946-12.757-12.642-0-0.030-0-0.065-0-0.1 0-1.798 0.396-3.504 1.104-5.035l-0.031 0.074c0.772-1.717-0.158-2.537-1.948-1.801-5.67 2.315-9.549 7.846-9.077 14.18z"></path>
</symbol>
<symbol id="sun" viewBox="0 0 32 32">
<path fill="none" stroke="#fff" style="stroke: var(--color1, #fff)" stroke-linejoin="round" stroke-linecap="round" stroke-miterlimit="4" stroke-width="2" d="M16 26c5.523 0 10-4.477 10-10s-4.477-10-10-10v0c-5.523 0-10 4.477-10 10s4.477 10 10 10v0z"></path>
<path fill="none" stroke="#fff" style="stroke: var(--color1, #fff)" stroke-linejoin="round" stroke-linecap="round" stroke-miterlimit="4" stroke-width="3" d="M25.814 6.186l0.182-0.182M6.004 25.996l0.182-0.182M16 2.112v-0.112M16 30v-0.112M2.112 16h-0.112M30 16h-0.112M6.186 6.186l-0.182-0.182M25.996 25.996l-0.182-0.182"></path>
</symbol>
<symbol id="icon-search" viewBox="0 0 32 32">
  <path fill="none" stroke="currentColor" style="stroke-width: 2.3111" d="M26.667 14.667c0 6.627-5.373 12-12 12s-12-5.373-12-12c0-6.627 5.373-12 12-12s12 5.373 12 12z"></path>
  <path fill="none" stroke="currentColor" style="stroke-width: 2.3111" d="M28.001 28l-5.8-5.8"></path>
</symbol>
<symbol id="icon-star" viewBox="0 0 32 32">
<path d="M24.626 30c-0.002 0-0.003 0-0.005 0-0.218 0-0.42-0.070-0.584-0.188l0.003 0.002-8.040-5.828-8.036 5.828c-0.163 0.12-0.368 0.192-0.589 0.192-0.552 0-1-0.448-1-1 0-0.115 0.019-0.226 0.055-0.329l-0.002 0.007 3.136-9.286-8.126-5.572c-0.265-0.183-0.436-0.484-0.436-0.826 0-0.552 0.448-1 1-1 0 0 0 0 0 0h10.024l3.024-9.308c0.134-0.404 0.509-0.691 0.951-0.691s0.817 0.286 0.949 0.684l0.002 0.007 3.028 9.312h10.020c0.001 0 0.002 0 0.002 0 0.552 0 1 0.448 1 1 0 0.342-0.171 0.643-0.433 0.824l-0.003 0.002-8.13 5.568 3.134 9.284c0.033 0.095 0.053 0.205 0.053 0.32 0 0.552-0.447 0.999-0.998 1h-0z"></path>
</symbol>
<symbol id="icon-star-half" viewBox="0 0 32 32">
<path fill="none" stroke="#000" style="stroke: var(--color2, #000)" stroke-linejoin="round" stroke-linecap="butt" stroke-miterlimit="4" stroke-width="2" d="M30 13h-10.75l-3.25-10-3.25 10h-10.75l8.75 6-3.376 10 8.626-6.25 8.626 6.25-3.376-10 8.75-6z"></path>
<path d="M16 3v19.75l-8.626 6.25 3.376-10-8.75-6h10.75l3.25-10z"></path>
<symbol id="heart" viewBox="0 0 34 32">
<path fill="#f87719" style="fill: var(--color1, #f87719)" d="M17.231 31.705l-2.412-2.412c-8.96-7.926-14.818-13.268-14.818-19.815 0-5.342 4.135-9.477 9.477-9.477 2.929 0 5.858 1.378 7.754 3.618 1.895-2.24 4.825-3.618 7.754-3.618 5.342 0 9.477 4.135 9.477 9.477 0 6.548-5.858 11.889-14.818 19.815l-2.412 2.412z"></path>
</symbol>
<symbol id="close-outline" viewBox="0 0 32 32">
<path fill="none" stroke="#f8f8f8" style="stroke: var(--color1, #f8f8f8)" stroke-linejoin="round" stroke-linecap="round" stroke-miterlimit="4" stroke-width="1.3333" d="M23 23l-14-14M23 9l-14 14"></path>
</symbol>
</defs>
</svg>
